<svg width="286" height="39" viewBox="0 0 286 39" fill="none" xmlns="http://www.w3.org/2000/svg">
<g style="mix-blend-mode:multiply">
<path d="M36.5275 1.50659H24.3535V23.0574H28.14V14.8615H35.0132V10.8781H28.14V5.49001H36.5275V1.50659ZM43.1471 1.50659H39.3607V23.0574H43.1471V1.50659ZM59.3611 1.50659V14.3713L48.6169 1.1147H47.3825V23.0574H51.1689V10.1266L61.884 23.4493H63.1461V1.50659H59.3597H59.3611ZM79.3337 23.0574H83.4014L75.1538 1.1147H73.8917L65.6164 23.0574H69.6841L70.7218 20.2496H78.296L79.3337 23.0574ZM76.9771 16.6242H72.0393L74.5082 9.34281L76.9771 16.6242ZM97.9043 1.50498V14.3697L87.1601 1.11309H85.9257V23.0558H89.7121V10.125L100.429 23.4477H101.691V1.50498H97.9043ZM114.735 1.11309C109.208 1.11309 104.861 5.94641 104.861 12.2812C104.861 18.616 109.208 23.4477 114.707 23.4477C118.298 23.4477 121.299 21.3898 122.898 18.0934L120.037 15.7421C118.802 18.0273 117.064 19.3659 114.735 19.3659C111.285 19.3659 108.759 16.4597 108.759 12.3134C108.759 8.13326 111.284 5.19489 114.735 5.19489C117.064 5.19489 118.802 6.53345 120.037 8.81867L122.898 6.46732C121.271 3.16931 118.297 1.11148 114.735 1.11148V1.11309ZM129.911 1.50498H126.125V23.0558H129.911V1.50498ZM146.097 23.0558H150.165L141.917 1.11309H140.655L132.38 23.0558H136.448L137.485 20.248H145.059L146.097 23.0558ZM143.741 16.6226H138.803L141.272 9.34119L143.741 16.6226ZM156.476 1.50337H152.689V23.0542H164.583V19.0707H156.476V1.50337ZM186.295 1.50337H173.839V23.0542H186.631V19.0707H177.627V13.6181H183.995V9.86372H177.627V5.4884H186.295V1.50498V1.50337ZM204.613 23.0542L198.525 12.0828L204.22 1.50337H199.927L196.393 8.29454L192.831 1.50337H188.511L194.29 12.0828L188.147 23.0542H192.467L196.393 15.9034L200.321 23.0542H204.613ZM214.095 1.50337H207.139V23.0542H210.925V15.447H214.095C217.994 15.447 220.772 12.607 220.772 8.45903C220.772 4.24661 217.994 1.50337 214.095 1.50337ZM214.095 5.38841C215.863 5.38841 216.901 6.66246 216.901 8.45742C216.901 10.3185 215.863 11.5926 214.095 11.5926H210.925V5.38841H214.095ZM239.425 23.0542L234.18 14.5971C236.172 13.4536 237.434 11.2329 237.434 8.45742C237.434 4.24499 234.658 1.50175 230.758 1.50175H223.802V23.0525H227.588V15.4453H230.366L235.162 23.0525H239.427L239.425 23.0542ZM227.587 5.38841H230.757C232.524 5.38841 233.562 6.66246 233.562 8.45742C233.562 10.3185 232.524 11.5603 230.757 11.5603H227.587V5.38841ZM254.208 1.50337H241.753V23.0542H254.545V19.0707H245.541V13.6181H251.908V9.86372H245.541V5.4884H254.208V1.50498V1.50337ZM263.633 1.11148C260.154 1.11148 257.49 3.49508 257.49 7.21724C257.49 10.254 259.341 12.0167 261.978 13.4214L263.97 14.4664C265.429 15.2502 266.327 15.7405 266.327 17.1435C266.327 18.645 265.317 19.5271 263.69 19.5271C261.475 19.5271 260.156 18.0257 259.146 16.392L256.537 18.6772C257.911 21.5511 260.492 23.4444 263.69 23.4444C267.364 23.4444 270.17 20.9963 270.17 16.979C270.17 13.91 268.514 12.1796 265.598 10.6765L263.495 9.59923C262.148 8.88157 261.335 8.35905 261.335 7.11725C261.335 5.68032 262.4 5.02716 263.635 5.02716C265.149 5.02716 266.271 5.94158 267.169 7.50914L269.75 5.19166C268.656 2.84031 266.58 1.10986 263.635 1.10986L263.633 1.11148ZM279.174 1.11148C275.695 1.11148 273.031 3.49508 273.031 7.21724C273.031 10.254 274.882 12.0167 277.518 13.4214L279.511 14.4664C280.969 15.2502 281.867 15.7405 281.867 17.1435C281.867 18.645 280.857 19.5271 279.231 19.5271C277.014 19.5271 275.696 18.0257 274.686 16.392L272.078 18.6772C273.452 21.5511 276.033 23.4444 279.231 23.4444C282.905 23.4444 285.71 20.9963 285.71 16.979C285.71 13.91 284.055 12.1796 281.138 10.6765L279.034 9.59923C277.687 8.88157 276.874 8.35905 276.874 7.11725C276.874 5.68032 277.939 5.02716 279.174 5.02716C280.688 5.02716 281.81 5.94158 282.708 7.50914L285.289 5.19166C284.195 2.84031 282.119 1.10986 279.174 1.10986V1.11148Z" fill="#005E8E"/>
<path d="M223.265 38.585L221.414 35.0015C222.125 34.7935 222.993 34.0968 222.993 32.5082C222.993 30.9439 222.104 29.9456 220.127 29.9456H217.324V38.585H218.611V35.1983H220.034L221.77 38.585H223.266H223.265ZM221.55 32.6243C221.55 33.6323 220.985 34.1661 219.97 34.1661H218.61V30.989H219.948C221.172 30.989 221.548 31.6503 221.548 32.6227L221.55 32.6243ZM229.437 35.1289C229.437 33.0888 228.495 31.6164 226.759 31.6164C225.065 31.6164 223.955 32.9953 223.955 35.037C223.955 37.0077 224.876 38.7833 227.063 38.7833C227.795 38.7833 228.663 38.4689 229.332 37.727L228.945 37.0545C228.255 37.6577 227.732 37.8431 227.104 37.8431C225.89 37.8431 225.263 36.8803 225.18 35.5014H229.416C229.437 35.3966 229.437 35.2805 229.437 35.1305V35.1289ZM228.182 34.7467H225.18C225.347 33.3436 225.818 32.5324 226.697 32.5324C227.722 32.5324 228.088 33.3791 228.182 34.7467ZM236.446 37.5754C236.299 37.6093 236.184 37.6222 236.06 37.6222C235.694 37.6222 235.494 37.4835 235.494 36.7997V33.7968C235.494 32.5211 234.856 31.6761 233.214 31.6761C232.2 31.6761 231.414 32.047 230.735 32.534L231.112 33.4839C231.677 33.0662 232.294 32.7647 233.016 32.7647C234.02 32.7647 234.344 33.2404 234.344 33.6452V34.0742C231.551 34.2355 230.422 35.1289 230.422 36.6013C230.422 37.9238 231.28 38.6898 232.388 38.6898C233.172 38.6898 233.905 38.4785 234.407 37.6318C234.49 38.2237 234.669 38.7011 235.37 38.7011C235.788 38.7011 236.186 38.5608 236.437 38.3866L236.448 37.5754H236.446ZM234.343 36.9255C233.936 37.448 233.35 37.7028 232.69 37.7028C231.865 37.7028 231.539 37.2158 231.539 36.5207C231.539 35.8127 231.999 35.0128 234.342 34.8047V36.9255H234.343ZM242.711 38.585V29.3086H241.539V32.347V32.7405C241.038 31.976 240.388 31.697 239.677 31.697C238.077 31.697 237.178 32.984 237.178 35.1515C237.178 38.0383 238.569 38.6898 239.605 38.6898C240.453 38.6898 240.902 38.4785 241.582 37.7254L241.665 38.585H242.711ZM241.509 36.89C241.153 37.377 240.536 37.7012 239.971 37.7012C239.081 37.7012 238.412 37.0287 238.412 35.1499C238.412 33.4452 238.977 32.6453 239.95 32.6453C240.913 32.6453 241.352 33.3872 241.509 33.9323V36.8884V36.89ZM250.672 32.984V32.0212H248.893V29.9456H247.92L247.7 32.0212H246.717V32.984H247.71V36.7868C247.71 38.085 248.234 38.6785 249.478 38.6785C249.979 38.6785 250.346 38.5979 250.618 38.3979V37.5512C250.377 37.6431 250.158 37.6431 249.928 37.6431C249.102 37.6431 248.893 37.2835 248.893 36.5417V32.9824H250.672V32.984ZM257.21 35.187C257.21 33.1001 256.07 31.6164 254.332 31.6164C252.627 31.6164 251.487 33.1001 251.487 35.1983C251.487 37.2851 252.627 38.7817 254.332 38.7817C256.048 38.7817 257.21 37.2851 257.21 35.1854V35.187ZM256.028 35.2208C256.028 36.7513 255.401 37.9221 254.334 37.9221C253.246 37.9221 252.671 36.7158 252.671 35.2095C252.671 33.6678 253.257 32.5195 254.334 32.5195C255.432 32.5195 256.028 33.6791 256.028 35.2208ZM266.311 38.585V37.3996H262.858V29.9456H261.571V38.585H266.31H266.311ZM272.431 35.1289C272.431 33.0888 271.488 31.6164 269.752 31.6164C268.058 31.6164 266.95 32.9953 266.95 35.037C266.95 37.0077 267.87 38.7833 270.056 38.7833C270.789 38.7833 271.656 38.4689 272.325 37.727L271.939 37.0545C271.249 37.6577 270.725 37.8431 270.097 37.8431C268.884 37.8431 268.256 36.8803 268.173 35.5014H272.41C272.431 35.3966 272.431 35.2805 272.431 35.1305V35.1289ZM271.175 34.7467H268.173C268.341 33.3436 268.812 32.5324 269.69 32.5324C270.715 32.5324 271.081 33.3791 271.175 34.7467ZM279.439 37.5754C279.293 37.6093 279.178 37.6222 279.053 37.6222C278.687 37.6222 278.488 37.4835 278.488 36.7997V33.7968C278.488 32.5211 277.849 31.6761 276.207 31.6761C275.193 31.6761 274.408 32.047 273.729 32.534L274.106 33.4839C274.671 33.0662 275.287 32.7647 276.009 32.7647C277.014 32.7647 277.338 33.2404 277.338 33.6452V34.0742C274.545 34.2355 273.416 35.1289 273.416 36.6013C273.416 37.9238 274.273 38.6898 275.382 38.6898C276.166 38.6898 276.899 38.4785 277.4 37.6318C277.483 38.2237 277.662 38.7011 278.363 38.7011C278.781 38.7011 279.179 38.5608 279.43 38.3866L279.441 37.5754H279.439ZM277.336 36.9255C276.929 37.448 276.343 37.7028 275.684 37.7028C274.858 37.7028 274.532 37.2158 274.532 36.5207C274.532 35.8127 274.992 35.0128 277.335 34.8047V36.9255H277.336ZM285.704 38.585V29.3086H284.532V32.347V32.7405C284.031 31.976 283.381 31.697 282.67 31.697C281.07 31.697 280.171 32.984 280.171 35.1515C280.171 38.0383 281.562 38.6898 282.598 38.6898C283.446 38.6898 283.895 38.4785 284.575 37.7254L284.658 38.585H285.704ZM284.502 36.89C284.146 37.377 283.529 37.7012 282.964 37.7012C282.075 37.7012 281.405 37.0287 281.405 35.1499C281.405 33.4452 281.971 32.6453 282.943 32.6453C283.905 32.6453 284.345 33.3872 284.502 33.9323V36.8884V36.89Z" fill="#C20410"/>
<path d="M7.46711 2.26749C6.58735 3.51735 6.74113 5.401 7.79269 6.46863L15.27 14.2758C16.2495 15.2692 15.6052 16.9158 15.6052 16.9158L15.759 17.0723L17.3232 14.8096C17.7056 14.2629 17.8926 13.5985 17.8954 12.9373V12.9034C17.8926 12.0503 17.5851 11.2004 17.0004 10.6069L9.52034 2.8013C8.54083 1.80302 9.18645 0.158047 9.18645 0.158047L9.03267 0L7.46849 2.26587L7.46711 2.26749Z" fill="#FF1204"/>
<path d="M4.01605 7.26787C3.13629 8.52096 3.29008 10.4046 4.34025 11.4706L11.8189 19.2762C12.7984 20.2729 12.1528 21.9178 12.1528 21.9178L12.3066 22.0775L13.8708 19.8116C14.7491 18.5618 14.5967 16.6765 13.5466 15.6105L6.0679 7.80329C5.08701 6.80663 5.73263 5.16327 5.73263 5.16327L5.57884 5.00684L4.01467 7.26948L4.01605 7.26787Z" fill="#FF1204"/>
<path d="M0.570806 12.2701C0.191192 12.8104 0.00415635 13.4732 0 14.1344V14.1828C0.00415635 15.0327 0.311726 15.8794 0.896386 16.4713L8.37505 24.2784C9.35595 25.2767 8.71033 26.9217 8.71033 26.9217L8.86411 27.0797L10.4283 24.8139C11.3067 23.5592 11.1529 21.6771 10.1041 20.6143L2.62543 12.8055C1.64453 11.8089 2.29015 10.1655 2.29015 10.1655L2.13636 10.0059L0.572191 12.2717L0.570806 12.2701Z" fill="#FF1204"/>
</g>
</svg>
